<svg fill="none" height="32" viewBox="0 0 32 32" width="32" xmlns="http://www.w3.org/2000/svg" xmlns:xlink="http://www.w3.org/1999/xlink"><clipPath id="a"><rect height="32" rx="16" width="32"/></clipPath><g clip-path="url(#a)"><path d="m16 32c8.8366 0 16-7.1634 16-16 0-8.83656-7.1634-16-16-16-8.83656 0-16 7.16344-16 16 0 8.8366 7.16344 16 16 16z" fill="#000"/><g fill="#cbffc0"><path d="m15.9948 10.1375-9.95037 9.9504 2.93416 2.9341 9.95031-9.9503z"/><path d="m24.222 9.505-12.3387 12.3388 2.9342 2.9341 12.3387-12.3387z"/><path d="m18.3367 10.2623-11.05997 11.06.3343.3343 11.05997-11.06z"/><path d="m26.9191 9.40516-15.7804 15.78034.3343.3343 15.7804-15.78034z"/></g></g><rect height="31" rx="15.5" stroke="#1e1e24" width="31" x=".5" y=".5"/></svg>