<svg width="304" height="304" viewBox="0 0 304 304" fill="none" xmlns="http://www.w3.org/2000/svg">
<g clip-path="url(#clip0_686_772)">
<path d="M152 304C235.947 304 304 235.947 304 152C304 68.0527 235.947 0 152 0C68.0527 0 0 68.0527 0 152C0 235.947 68.0527 304 152 304Z" fill="#181A1F"/>
<path d="M61.9915 214.394C71.2644 227.293 83.1589 238.086 96.8952 246.065C110.631 254.045 125.899 259.03 141.697 260.695C133.569 248.463 121.755 237.21 107.006 228.642C92.2563 220.075 76.6366 215.395 61.9915 214.394Z" fill="white"/>
<path d="M126.825 194.529C98.4086 178.019 67.6527 173.811 45.646 181.244C47.7704 188.266 50.5723 195.065 54.012 201.545C73.1321 201.102 94.008 206.295 113.433 217.578C132.858 228.861 147.715 244.434 156.807 261.267C164.143 261.042 171.441 260.108 178.598 258.477C174.149 235.68 155.233 211.042 126.825 194.529Z" fill="white"/>
<path d="M262.236 127.515C258.623 112.818 252.086 99.0009 243.015 86.8872C233.944 74.7735 222.525 64.6121 209.44 57.0097C196.355 49.4073 181.873 44.5197 166.857 42.6389C151.842 40.7581 136.601 41.9226 122.045 46.0628C146.362 49.0389 173.354 58.168 199.824 73.547C226.295 88.9259 247.613 107.85 262.236 127.515Z" fill="white"/>
<path d="M226.857 181.412C214.41 160.739 193.088 140.945 166.822 125.685C140.556 110.425 112.805 101.709 88.7043 101.132C67.501 100.63 51.5874 106.794 45.0553 118.04C45.0181 118.107 44.966 118.17 44.9251 118.237C44.3374 120.347 43.8315 122.46 43.3702 124.58C52.4913 120.979 63.0595 118.974 74.8105 118.751C100.943 118.26 130.188 126.619 157.176 142.299C184.164 157.979 205.929 179.254 218.442 202.193C224.052 212.527 227.552 222.702 228.94 232.422C230.554 230.979 232.139 229.487 233.675 227.936C233.716 227.865 233.742 227.791 233.783 227.716C240.315 216.459 237.789 199.585 226.857 181.412Z" fill="white"/>
<path d="M146.838 160.081C106.615 136.711 62.1665 133.05 40.7921 149.359C40.8341 154.464 41.2243 159.56 41.9601 164.612C48.2477 162.705 54.728 161.505 61.2811 161.033C85.1664 159.236 111.499 165.891 135.396 179.782C159.292 193.673 178.13 213.263 188.404 234.888C191.244 240.812 193.41 247.037 194.862 253.444C199.615 251.58 204.237 249.397 208.696 246.908C212.274 220.257 187.072 183.454 146.838 160.081Z" fill="white"/>
<path d="M247.546 146.811C234.957 126.161 213.449 106.311 186.997 90.9508C160.545 75.5904 132.687 66.7366 108.508 66.026C90.076 65.4941 75.7991 69.9619 68.3966 78.4028C99.1339 73.1947 139.677 81.9481 178.973 104.778C218.27 127.608 245.968 158.5 256.659 187.781C260.323 177.175 257.135 162.559 247.546 146.811Z" fill="white"/>
</g>
<defs>
<clipPath id="clip0_686_772">
<rect width="304" height="304" fill="white"/>
</clipPath>
</defs>
</svg>
